<svg id="Layer_1" data-name="Layer 1" xmlns="http://www.w3.org/2000/svg" viewBox="0 0 938.22 634.59"><title>Scribble01</title><path d="M925,199.62c-8.58-7.87-19.83-13.72-31.82-13.18-11.46.51-24,4.23-31.82,13.18q-21.31,24.39-44,47.55A46.51,46.51,0,0,0,797.1,221.9a45.05,45.05,0,0,0-45.42,0A394.89,394.89,0,0,0,687,283.44c-12.07,14.49-23.5,29.5-34.69,44.68q9.08-18.4,18.81-36.46c16.87-31.28,36.47-60.91,53.62-92,10.93-19.82,20.57-40.85,26.69-62.67,5.18-18.47-3.25-41.61-20.68-50.82A53.38,53.38,0,0,0,708,80c-12-.54-23.12,5.62-31.82,13.18-6.16,5.35-12.07,11-17.8,16.75a57.37,57.37,0,0,0-7.55-10.18c-3.38-3.7-7.7-6.52-11.7-9.52a45.05,45.05,0,0,0-45.42,0c-1.89.93-3.75,1.9-5.59,2.89a54.89,54.89,0,0,0-5.48-11.72c-7.33-11.82-20.07-21.69-33.85-24.31-17.4-3.31-34,.27-48.83,9.19a75.92,75.92,0,0,0-1.89-24.56C492.07,17.86,468.75-.37,444.06,0c-16.18.25-30.52,6.72-43.63,15.61a354.48,354.48,0,0,0-49.7,40.7,466.84,466.84,0,0,0-38.88,44c-8-8.5-18.62-14.15-29.55-17.86a62.76,62.76,0,0,0-19.87-2.88A71.59,71.59,0,0,0,241,82.87a99.59,99.59,0,0,0-29.32,15.08,469.3,469.3,0,0,0-40.36,34.77,663.16,663.16,0,0,0-59.66,64.89c-39,48.53-72.46,100.94-97.55,158Q7.75,370.1,1.82,384.78c-4.09,10.1-.71,25.71,4.54,34.68,5.46,9.33,16.17,18.24,26.89,20.68,11.52,2.62,24.45,2.06,34.68-4.54l9.11-7A45,45,0,0,0,88.6,408.7c.48-1.18,1-2.34,1.45-3.52a670.71,670.71,0,0,1,81.13-138.73q20.1-25.47,42.56-49c11.12-11.6,22.63-23.12,34.7-33.91,0,1.69,0,3.37,0,5.06-25.17,36.77-49.06,74.38-68,114.85a932.75,932.75,0,0,0-38.88,98.57c-11.87,35.44-23,71.6-25.22,109.16-.66,11.17.7,21.74,2.34,32.83a45.09,45.09,0,0,0,31.43,31.43c14.94,4.11,33.1.12,43.78-11.57,9.25-10.12,18.35-20.48,27.1-31.14A40.31,40.31,0,0,0,234,544.26c10.44,5.52,23.1,8.28,34.68,4.54a54.82,54.82,0,0,0,17.2-9,434.37,434.37,0,0,0-9.23,50.13l1.61,12,4.54,10.75A44.62,44.62,0,0,0,304.32,631c16.19,6.83,36.66,3.8,49.16-9.3,23.62-24.78,43.82-52.79,61.85-82.17A46.26,46.26,0,0,0,468.82,532a446.39,446.39,0,0,0,43-47.81c2.07,12.09,7,23.37,16.1,32.74,18.77,19.33,48.06,18.84,70.47,6.95,10.42-5.53,19.52-14.17,28.18-22.17a398.75,398.75,0,0,0,37-39.6c26.15-31.73,49.16-65.81,73.94-98.57a52.39,52.39,0,0,0,57.23,19.19c13.93-4.23,24.5-13.4,35.1-22.91q9.69-8.69,19.17-17.6,18.62-17.51,36.42-35.87,20.38-21,39.63-43.1c7.92-9.07,13.18-19.47,13.18-31.82C938.22,220.41,933.32,207.22,925,199.62Z"/></svg>