<?xml version="1.0" encoding="utf-8"?>
<!-- Generator: Adobe Illustrator 19.0.0, SVG Export Plug-In . SVG Version: 6.00 Build 0)  -->
<!DOCTYPE svg PUBLIC "-//W3C//DTD SVG 1.1//EN" "http://www.w3.org/Graphics/SVG/1.1/DTD/svg11.dtd">
<svg version="1.1" id="Layer_1" xmlns="http://www.w3.org/2000/svg" xmlns:xlink="http://www.w3.org/1999/xlink" x="0px" y="0px"
	 viewBox="-88 155 182 52" style="enable-background:new -88 155 182 52;" xml:space="preserve">
<style type="text/css">
	.st0{fill:#4645d1;}
</style>
<g>
	<polygon class="st0" points="-34.4,169.9 -34.4,159.1 -31.3,159.1 -31.3,156.4 -40.6,156.4 -40.6,159.1 -37.5,159.1 -37.5,169.9 	
		"/>
	<path class="st0" d="M-27.4,165.3c0-1.4,0.6-2.4,1.8-2.4c1.2,0,1.6,0.9,1.6,2.3v4.8h2.9v-5.5c0-1.3-0.2-2.3-0.8-3
		c-0.5-0.7-1.3-1.1-2.5-1.1c-1.5,0-2.5,0.6-3,1.6v-5.6h-2.9v13.5h2.9V165.3z"/>
	<path class="st0" d="M-15.4,170.2c2.7,0,4.3-1.4,4.6-3.2h-2.9c-0.2,0.6-0.7,1.1-1.7,1.1c-1.5,0-2-0.9-2-2.1h6.7
		c0.1-0.5,0.1-0.7,0.1-1.1c0-2.6-1.9-4.6-4.9-4.6c-3.2,0-4.9,2.2-4.9,4.9C-20.5,167.9-18.7,170.2-15.4,170.2z M-15.6,162.4
		c1.1,0,1.9,0.7,1.9,1.8h-3.9C-17.5,163.1-16.7,162.4-15.6,162.4z"/>
	<path class="st0" d="M-63.6,158.2c-14.5,0-23.4,11.4-23.4,23.7c0,12.3,8.9,23.8,23.4,23.8c14.6,0,23.5-11.5,23.5-23.8
		C-40.1,169.6-49,158.2-63.6,158.2z M-63.6,198.9c-9.6,0-15.6-8.3-15.6-17.1c0-8.8,6-17.1,15.6-17.1S-48,173-48,181.8
		S-53.9,198.9-63.6,198.9z"/>
	<path class="st0" d="M77.2,199.4c-5.9,0-7.8-3.5-8.1-7.8h21.6c0.3-1.9,0.3-3.4,0.3-4.4c0-7.7-6.2-13.6-14-13.6
		c-9.5,0-14.9,6.8-14.9,15.9c0,8.9,4.9,15.9,15.1,15.9c7.7,0,12.7-4.7,13.5-9.8h-7.1C82.8,197.7,81.2,199.4,77.2,199.4z M76.8,178.9
		c4.3,0,7.3,2.8,7.3,7.4h-15C69.1,181.4,72.5,178.9,76.8,178.9z"/>
	<rect x="22.2" y="174.4" class="st0" width="7.1" height="30.2"/>
	<path class="st0" d="M49.6,173.7c-4.5,0-8,1.7-9.8,5v-4.2h-7.1v30.2h7.1v-15.7c0-5.2,2.3-9.1,7.2-9.1c5,0,6.5,3.9,6.5,9.1v15.6h7.1
		v-17.9c0-4.1-0.5-6.7-1.9-8.9C57,175.2,53.9,173.7,49.6,173.7z"/>
	<path class="st0" d="M1.4,192.8v-12.5h6.9v-5.9H1.4v-9.1h-7.1v9.1h-4.9h-0.2h-6.8V190c0,5.2-2.3,9.1-7.2,9.1c-5,0-6.5-3.9-6.5-9.1
		v-15.6h-7.1v17.9c0,4.1,0.5,6.7,1.9,8.9c1.7,2.5,4.7,4.1,9.1,4.1c4.5,0,8-1.7,9.8-5v4.2h7.1v-24.2h4.9v14c0,10.2,6.3,10.6,9.8,10.6
		c2.1,0,4.1-0.2,5.2-0.4v-6.2c-0.7,0.1-2.5,0.3-3.6,0.3C3,198.6,1.4,197.9,1.4,192.8z"/>
	<rect x="11.7" y="159.3" class="st0" width="7.1" height="45.3"/>
</g>
</svg>
