<?xml version="1.0" encoding="utf-8"?>
<!-- Generator: Adobe Illustrator 21.0.0, SVG Export Plug-In . SVG Version: 6.00 Build 0)  -->
<!DOCTYPE svg PUBLIC "-//W3C//DTD SVG 1.1//EN" "http://www.w3.org/Graphics/SVG/1.1/DTD/svg11.dtd">
<svg version="1.1" id="Layer_1" xmlns="http://www.w3.org/2000/svg" xmlns:xlink="http://www.w3.org/1999/xlink" x="0px" y="0px"
	 viewBox="0 0 182 52" style="enable-background:new 0 0 182 52;" xml:space="preserve">
<g>
	<polygon points="53.6,14.9 53.6,4.1 56.7,4.1 56.7,1.4 47.4,1.4 47.4,4.1 50.5,4.1 50.5,14.9 	"/>
	<path d="M60.6,10.3c0-1.4,0.6-2.4,1.8-2.4c1.2,0,1.6,0.9,1.6,2.3V15h2.9V9.5c0-1.3-0.2-2.3-0.8-3c-0.5-0.7-1.3-1.1-2.5-1.1
		c-1.5,0-2.5,0.6-3,1.6V1.4h-2.9v13.5h2.9V10.3z"/>
	<path d="M72.6,15.2c2.7,0,4.3-1.4,4.6-3.2h-2.9c-0.2,0.6-0.7,1.1-1.7,1.1c-1.5,0-2-0.9-2-2.1h6.7c0.1-0.5,0.1-0.7,0.1-1.1
		c0-2.6-1.9-4.6-4.9-4.6c-3.2,0-4.9,2.2-4.9,4.9C67.5,12.9,69.3,15.2,72.6,15.2z M72.4,7.4c1.1,0,1.9,0.7,1.9,1.8h-3.9
		C70.5,8.1,71.3,7.4,72.4,7.4z"/>
	<path d="M24.4,3.2C9.9,3.2,1,14.6,1,26.9s8.9,23.8,23.4,23.8c14.6,0,23.5-11.5,23.5-23.8C47.9,14.6,39,3.2,24.4,3.2z M24.4,43.9
		c-9.6,0-15.6-8.3-15.6-17.1s6-17.1,15.6-17.1S40,18,40,26.8S34.1,43.9,24.4,43.9z"/>
	<path d="M165.2,44.4c-5.9,0-7.8-3.5-8.1-7.8h21.6c0.3-1.9,0.3-3.4,0.3-4.4c0-7.7-6.2-13.6-14-13.6c-9.5,0-14.9,6.8-14.9,15.9
		c0,8.9,4.9,15.9,15.1,15.9c7.7,0,12.7-4.7,13.5-9.8h-7.1C170.8,42.7,169.2,44.4,165.2,44.4z M164.8,23.9c4.3,0,7.3,2.8,7.3,7.4h-15
		C157.1,26.4,160.5,23.9,164.8,23.9z"/>
	<rect x="110.2" y="19.4" width="7.1" height="30.2"/>
	<path d="M137.6,18.7c-4.5,0-8,1.7-9.8,5v-4.2h-7.1v30.2h7.1V34c0-5.2,2.3-9.1,7.2-9.1c5,0,6.5,3.9,6.5,9.1v15.6h7.1V31.7
		c0-4.1-0.5-6.7-1.9-8.9C145,20.2,141.9,18.7,137.6,18.7z"/>
	<path d="M89.4,37.8V25.3h6.9v-5.9h-6.9v-9.1h-7.1v9.1h-4.9h-0.2h-6.8V35c0,5.2-2.3,9.1-7.2,9.1c-5,0-6.5-3.9-6.5-9.1V19.4h-7.1
		v17.9c0,4.1,0.5,6.7,1.9,8.9c1.7,2.5,4.7,4.1,9.1,4.1c4.5,0,8-1.7,9.8-5v4.2h7.1V25.3h4.9v14c0,10.2,6.3,10.6,9.8,10.6
		c2.1,0,4.1-0.2,5.2-0.4v-6.2c-0.7,0.1-2.5,0.3-3.6,0.3C91,43.6,89.4,42.9,89.4,37.8z"/>
	<rect x="99.7" y="4.3" width="7.1" height="45.3"/>
</g>
</svg>
