<svg id="Layer_1" data-name="Layer 1" xmlns="http://www.w3.org/2000/svg" viewBox="0 0 442.55 280"><defs><style>.cls-1{fill:#231f20;}</style></defs><title>Scribble05</title><path class="cls-1" d="M115.06,280a19.82,19.82,0,0,1-19.22-24.61c2-8,4.7-17.32,7.9-27.57q-3.17,8-6.25,15.89l-2.14,5.47a19.8,19.8,0,0,1-37.95-10.6c1.72-10,4.23-20.83,7.32-32.26a19.81,19.81,0,0,1-23.39-19.82,304.43,304.43,0,0,1,2.43-34.57c-2.32,3.51-4.75,7.23-7.32,11.21A19.8,19.8,0,0,1,.34,148.73c6.89-36.59,12.43-61.22,31.19-94.58a19.8,19.8,0,0,1,36.54,5.18C73.9,53.52,80.39,47.19,87.84,40a19.8,19.8,0,0,1,26.1-1.23q.51.4,1,.84a195,195,0,0,1,26-29.58,19.8,19.8,0,0,1,31.57,22.3c-1,2.33-2.16,5.14-3.51,8.31a19.8,19.8,0,0,1,18.2-3.08Q199.35,17.8,210.34,6.18a19.8,19.8,0,0,1,32.85,6.5,19.81,19.81,0,0,1,25.48,6l.07-.1a19.8,19.8,0,0,1,35.69,10.32c.32,4.39-.58,9.6-4,19.92q4.87-5.43,9.89-10.76a19.8,19.8,0,0,1,27.61-1.19q.45.4.87.83,1.92-2.48,3.88-4.92l.09-.11a19.8,19.8,0,0,1,32,23.24c-.23.47-.49,1.06-.8,1.78a21.57,21.57,0,0,1,14.16-.9A19.8,19.8,0,0,1,401,83.48a198.2,198.2,0,0,0-10.23,33.26c7.06-8.85,13.74-16.18,19.15-20.77a19.8,19.8,0,0,1,25.63,30.19c-13.08,11.1-46.08,57.8-54.3,82.43a19.8,19.8,0,0,1-38.59-6c-.14-11.54.24-24.56,1.3-38.23-5.66,12.23-10.29,24.84-12.75,36.76-.48,2.55-.89,4.94-1.22,7.15a19.8,19.8,0,0,1-37.88,4.67q-7,18.83-14.3,40.57a19.8,19.8,0,0,1-38.58-6.57c.2-13.48,2.88-29.51,6.93-46.26q-5.69,12.1-10.7,24.47a19.81,19.81,0,0,1-31.48,7.4,19.8,19.8,0,0,1-37.32-10.68A19.82,19.82,0,0,1,146.25,229c-6.65,19-11,32.57-12.14,36.56A19.81,19.81,0,0,1,115.06,280ZM373.65,57.41l0,0,0,0Z"/></svg>