<?xml version="1.0" standalone="no"?>
<!DOCTYPE svg PUBLIC "-//W3C//DTD SVG 20010904//EN"
 "http://www.w3.org/TR/2001/REC-SVG-20010904/DTD/svg10.dtd">
<svg version="1.0" xmlns="http://www.w3.org/2000/svg"
 width="240.000000pt" height="240.000000pt" viewBox="0 0 240.000000 240.000000"
 preserveAspectRatio="xMidYMid meet">
<metadata>
Created by potrace 1.11, written by Peter Selinger 2001-2013
</metadata>
<g transform="translate(0.000000,240.000000) scale(0.100000,-0.100000)"
fill="#000000" stroke="none">
<path d="M0 1200 l0 -1200 1200 0 1200 0 0 1200 0 1200 -1200 0 -1200 0 0
-1200z m1518 989 c318 -81 573 -340 654 -664 30 -123 31 -324 0 -436 -47 -174
-123 -308 -242 -427 -83 -83 -151 -130 -263 -182 -105 -49 -180 -69 -289 -77
l-88 -6 0 215 0 214 70 11 c169 26 321 149 375 302 103 293 -82 601 -385 639
l-55 7 -3 219 -2 219 75 -7 c41 -4 110 -16 153 -27z m-408 -402 l0 -213 -75
-13 c-258 -43 -431 -278 -394 -535 29 -211 198 -378 409 -404 l55 -7 3 -219 2
-219 -72 6 c-391 34 -714 310 -810 694 -30 121 -30 323 0 434 59 217 175 390
347 517 139 103 323 169 473 171 l62 1 0 -213z"/>
</g>
</svg>
